# xmcd
#
# Track frame offsets: 
#        151
#        14729
#        32777
#        47559
#        68237
#        89895
#        107829
#        126743
#        143757
#        160030
#        176695
#        197082
#        217752
#        233505
#
# Disc length: 3310 seconds
#
# Revision: 7
# Processed by: cddbd v1.5.2PL0 Copyright (c) Steve Scherf et al.
# Submitted via: ExactAudioCopy v0.99pb5
#
DISCID=c90cec0e
DTITLE=Kenny Wayne Shepherd Band - Live On
DYEAR=1999
DGENRE=Blues
TTITLE0=In 2 Deep
TTITLE1=Was
TTITLE2=Them Changes
TTITLE3=Last Goodbye
TTITLE4=Shotgun Blues
TTITLE5=Never Mind
TTITLE6=You Should Know Better
TTITLE7=Every Time It Rains
TTITLE8=Oh Well
TTITLE9=Wild Love
TTITLE10=Losing Kind
TTITLE11=Live On
TTITLE12=Where Was I?
TTITLE13=Electric Lullaby
EXTD=YEAR: 1999 ID3G: 0
EXTT0=
EXTT1=
EXTT2=
EXTT3=
EXTT4=
EXTT5=
EXTT6=
EXTT7=
EXTT8=
EXTT9=
EXTT10=
EXTT11=
EXTT12=
EXTT13=
PLAYORDER=
